<?xml version="1.0" encoding="utf-8"?>
<!-- Generator: Adobe Illustrator 27.7.0, SVG Export Plug-In . SVG Version: 6.00 Build 0)  -->
<svg version="1.1" id="Layer_1" xmlns="http://www.w3.org/2000/svg" xmlns:xlink="http://www.w3.org/1999/xlink" x="0px" y="0px"
	 viewBox="0 0 16 16" style="enable-background:new 0 0 16 16;" xml:space="preserve">
<style type="text/css">
	.st0{fill:#ed0060;}
	.st1{fill:#10018a;}
</style>
<g>
	<path class="st0" d="M0,12.9V0h2.2c1.2,0,2.2,1,2.2,2.2v10.8c0,1.2-1,2.2-2.2,2.2l0,0C1,15.1,0,14.1,0,12.9z"/>
	<g>
		<path class="st1" d="M11.6,8v5.8c0,1.2,1,2.2,2.2,2.2H16V8c0-4.4-3.6-8-8-8l0,0C3.6,0,0,3.6,0,8v8h4.4V8C4.4,6,6,4.4,8,4.4l0,0
			C10,4.4,11.6,6,11.6,8z"/>
	</g>
</g>
</svg>
