<?xml version="1.0" encoding="UTF-8"?><svg id="Layer_2" xmlns="http://www.w3.org/2000/svg" viewBox="0 0 1001.1 752.45"><defs><style>.cls-1{fill:#ed0060;}.cls-2{fill:#fff;}.cls-3{fill:silver;}.cls-4{fill:#10018a;}</style></defs><rect class="cls-2" x=".8" y=".9" width="1000" height="750"/><path class="cls-3" d="m650.47,436.46h-33.29c-33.45,0-60.56-27.12-60.56-60.56h0c0-33.45,27.12-60.56,60.56-60.56h97.58c20.44,0,37.01-16.57,37.01-37.01v-37.01h-134.59c-74.33,0-134.59,60.26-134.59,134.59h0c0,74.33,60.26,134.59,134.59,134.59h33.29v-74.02Z"/><path class="cls-3" d="m714.5,338.41h-64.03v37.27c0,16.93,11.29,31.22,26.76,35.76v98.99h37.27c20.58,0,37.27-16.69,37.27-37.27v-97.47c0-20.58-16.69-37.27-37.27-37.27Z"/><path class="cls-1" d="m196.54,331.62h180.61c20.31,0,36.79,16.49,36.79,36.79h0c0,20.31-16.49,36.79-36.79,36.79h-217.41v-36.79c0-20.31,16.49-36.79,36.79-36.79Z" transform="translate(655.26 81.56) rotate(90)"/><path class="cls-4" d="m444.99,375.9v97.58c0,20.44,16.57,37.01,37.01,37.01h37.01s0-134.59,0-134.59c0-74.33-60.26-134.59-134.59-134.59h0c-74.33,0-134.59,60.26-134.59,134.59v134.59s74.02,0,74.02,0v-134.59c0-33.45,27.12-60.56,60.56-60.56h0c33.45,0,60.56,27.12,60.56,60.56Z"/></svg>