<?xml version="1.0" encoding="utf-8"?>
<!-- Generator: Adobe Illustrator 27.7.0, SVG Export Plug-In . SVG Version: 6.00 Build 0)  -->
<svg version="1.1" id="Layer_1" xmlns="http://www.w3.org/2000/svg" xmlns:xlink="http://www.w3.org/1999/xlink" x="0px" y="0px"
	 viewBox="0 0 160 86" style="enable-background:new 0 0 160 86;" xml:space="preserve">
<style type="text/css">
	.st0{fill:#FFFFFF;}
</style>
<g>
	<path class="st0" d="M148,31h-19.8c-0.3,0-0.5,0.2-0.5,0.5v11.4c0,5.3,3.4,9.8,8.2,11.3c0.2,0.1,0.3,0.3,0.3,0.5v30.7
		c0,0.3,0.2,0.5,0.5,0.5h11.4c6.6,0,11.9-5.3,11.9-11.9V54.8V44.5V43C160,36.4,154.6,31,148,31z"/>
	<path class="st0" d="M159.5,0.1h-42.4c-15.6,0-29.2,8.3-36.7,20.7c-0.2,0.3-0.6,0.3-0.8,0C72.1,8.4,58.5,0.1,42.9,0.1
		c-7.5,0-14.6,1.9-20.8,5.4c-0.2,0.1-0.5,0.1-0.6-0.2c-2.1-3.1-5.6-5.2-9.7-5.2H0.6c-0.3,0-0.5,0.2-0.5,0.5v39.6C0,41.1,0,42.1,0,43
		v42.4c0,0.3,0.2,0.5,0.5,0.5h22.6c0.3,0,0.5-0.2,0.5-0.5V43.5c0-10.9,8.9-20,19.8-19.8C53.8,24,62.2,32.5,62.2,43v31.1
		c0,6.5,5.3,11.8,11.8,11.8h11.3c0.3,0,0.5-0.2,0.5-0.5V73.6c0-0.4,0.5-0.7,0.9-0.3c7.8,7.8,18.5,12.7,30.4,12.7h10.1
		c0.3,0,0.5-0.2,0.5-0.5V62.8c0-0.3-0.2-0.5-0.5-0.5h-9.6c-10.9,0-20-8.9-19.8-19.8c0.2-10.5,8.8-18.8,19.3-18.8h31.1
		c6.5,0,11.8-5.3,11.8-11.8V0.6C160,0.3,159.8,0.1,159.5,0.1z"/>
</g>
</svg>
