<?xml version="1.0" encoding="utf-8"?>
<!-- Generator: Adobe Illustrator 27.7.0, SVG Export Plug-In . SVG Version: 6.00 Build 0)  -->
<svg version="1.1" id="Layer_1" xmlns="http://www.w3.org/2000/svg" xmlns:xlink="http://www.w3.org/1999/xlink" x="0px" y="0px"
	 viewBox="0 0 160 86" style="enable-background:new 0 0 160 86;" xml:space="preserve">
<style type="text/css">
	.st0{fill:#C0C0C0;}
	.st1{fill:#ED0060;}
	.st2{fill:#10018A;}
</style>
<g>
	<g>
		<path class="st0" d="M127.7,62.3h-10.6c-10.7,0-19.3-8.6-19.3-19.3l0,0c0-10.7,8.6-19.3,19.3-19.3h31.1c6.5,0,11.8-5.3,11.8-11.8
			V0.1h-42.9C93.4,0.1,74.2,19.3,74.2,43l0,0c0,23.7,19.2,42.9,42.9,42.9h10.6V62.3z"/>
		<path class="st0" d="M148.1,31h-20.4v11.9c0,5.4,3.6,10,8.5,11.4v31.6h11.9c6.6,0,11.9-5.3,11.9-11.9V54.8V44.5V43
			C160,36.4,154.7,31,148.1,31z"/>
	</g>
	<path class="st1" d="M0.1,69.4V0.1h11.7c6.5,0,11.7,5.3,11.7,11.7v57.6c0,6.5-5.3,11.7-11.7,11.7l0,0C5.3,81.1,0.1,75.9,0.1,69.4z"
		/>
	<g>
		<path class="st2" d="M62.2,43v31.1c0,6.5,5.3,11.8,11.8,11.8h11.8V43c0-23.7-19.2-42.9-42.9-42.9l0,0C19.2,0.1,0,19.3,0,43v42.9
			h23.6V43c0-10.7,8.6-19.3,19.3-19.3l0,0C53.6,23.7,62.2,32.3,62.2,43z"/>
	</g>
</g>
</svg>
