<?xml version="1.0" encoding="utf-8"?>
<!-- Generator: Adobe Illustrator 27.7.0, SVG Export Plug-In . SVG Version: 6.00 Build 0)  -->
<svg version="1.1" xmlns="http://www.w3.org/2000/svg" xmlns:xlink="http://www.w3.org/1999/xlink" x="0px" y="0px"
	 viewBox="0 0 1000 750" style="enable-background:new 0 0 1000 750;" xml:space="preserve">
<style type="text/css">
	.st0{display:none;}
	.st1{display:inline;}
	.st2{fill:#F5F5F5;}
	.st3{display:inline;fill:none;stroke:#BEBEBE;stroke-miterlimit:10;}
	.st4{font-family:'Poppins-Medium';}
	.st5{font-size:35px;}
	.st6{fill:#FFFFFF;}
	.st7{display:inline;fill:#7300E7;}
	.st8{fill:#10018A;}
	.st9{fill:#F5F5FF;stroke:#10018A;stroke-width:2.1001;stroke-miterlimit:10;}
	.st10{fill:none;stroke:#10018A;stroke-width:2.1001;stroke-linecap:round;stroke-linejoin:round;stroke-miterlimit:10;}
	.st11{fill:none;stroke:#ED0060;stroke-width:1.8531;stroke-linecap:round;stroke-linejoin:round;stroke-miterlimit:10;}
	.st12{fill:none;stroke:#10018A;stroke-width:2.4269;stroke-linecap:round;stroke-linejoin:round;stroke-miterlimit:10;}
	.st13{fill:#F5F5FF;stroke:#10018A;stroke-width:2.1001;stroke-linecap:round;stroke-linejoin:round;stroke-miterlimit:10;}
	.st14{clip-path:url(#SVGID_00000173136793134258425680000007031109479605555859_);}
	.st15{fill:#C0C0C0;}
	.st16{fill:#ED0060;}
</style>
<g id="Layer_1" class="st0">
	<g class="st1">
		<rect class="st2" width="1000" height="750"/>
	</g>
	<line class="st3" x1="-0.5" y1="0.5" x2="1000" y2="750"/>
	<line class="st3" x1="999.5" y1="-0.5" x2="-0.5" y2="750.5"/>
	<text transform="matrix(1 0 0 1 441.0957 379.6636)" class="st1 st4 st5">avatar</text>
</g>
<g id="Layer_2">
	<rect class="st6" width="1000" height="750"/>
	<g class="st0">
		<circle class="st7" cx="500" cy="354.1" r="254.6"/>
		<g class="st1">
			<g>
				<path class="st8" d="M404.3,214.1c21-43.9,63.8-57.6,102.3-55.4c31.3,1.8,65.1,14,84.1,48.4c7.4,13.4,8.5,51.9,7.5,90.8
					c-1.5,55.5-43,99.9-94.3,101.1l0,0c-48.5,1.2-90.3-36.7-98.1-88.6C399.9,271.1,396.5,230.4,404.3,214.1z"/>
				<g>
					<path class="st9" d="M546.3,490.4c0.9,27.8-20.9,50.8-48,50.8c-26.6,0-48-22.1-48-49.2c0-0.5,0-1.1,0-1.6l5.3-73.4l0.7-9.5
						l1.2-16l2.2-29.6h77.3l3.4,47.3l0.8,10.3l2.6,35.4L546.3,490.4z"/>
					<path class="st8" d="M543.7,455c-24.4,3-51.8-8.7-70.4-32.5c-7.6-9.6-12.8-20.2-15.8-30.9l2.2-29.6h77.3l3.4,47.3l0.8,10.3
						L543.7,455z"/>
				</g>
				<g>
					<g>
						<g>
							<g>
								<g>
									<path class="st9" d="M565.5,288.4c-9.7,15.6-8.8,34.1,2.1,41.3c10.9,7.2,27.5,0.4,37.3-15.2c9.7-15.6,8.8-34.1-2.1-41.3
										C591.9,266,575.2,272.9,565.5,288.4z"/>
								</g>
							</g>
						</g>
						<path class="st10" d="M594.6,280.7c4.7,1.8,8.3,6.3,9,11.3c0.8,5-1.3,10.3-5.3,13.5"/>
					</g>
					<g>
						<g>
							<g>
								<g>
									<path class="st9" d="M434.5,288.4c9.7,15.6,8.8,34.1-2.1,41.3c-10.9,7.2-27.5,0.4-37.3-15.2c-9.7-15.6-8.8-34.1,2.1-41.3
										C408.1,266,424.8,272.9,434.5,288.4z"/>
								</g>
							</g>
						</g>
						<path class="st10" d="M405.4,280.7c-4.7,1.8-8.3,6.3-9,11.3c-0.8,5,1.3,10.3,5.3,13.5"/>
					</g>
				</g>
				<path class="st9" d="M590.6,266.9c0,1.5,0,2.9-0.1,4.3c-0.1,4.2-0.5,8.4-1,12.6l-0.6,5.9l-0.3,3.2l-0.4,4.6
					c-0.2,2.8-0.4,5.6-0.6,8.3c-0.1,1.8-0.2,3.5-0.3,5.2c-0.4,7-0.8,13.9-1.7,20.8c0,0.1,0,0.2,0,0.3c-0.2,1.3-0.4,2.6-0.6,3.9
					c-0.2,1.4-0.5,2.8-0.9,4.2c-0.4,2.1-1,4.2-1.6,6.3c-0.2,0.8-0.4,1.5-0.7,2.3c-0.5,1.5-1.1,3.1-1.7,4.7c-1.7,4-3.6,8-5.9,11.9
					c-9.4,16.4-23.8,31.4-38.2,41.4c0,0.1-0.1,0.2-0.2,0.2c-1.8,1.3-3.5,2.4-5.3,3.5c-17.6,10.7-38.4,11.3-56.6,2.1
					c-3.8-1.9-7.4-4.1-10.9-6.7c0,0-0.1,0-0.1-0.1c-14-10-25.9-24.4-35-40.3c-0.6-1.1-1.2-2.2-1.9-3.3c-0.3-0.6-0.6-1.2-0.9-1.8
					c-0.5-1-1-2-1.5-3.1c-1.4-2.7-2.7-5.6-3.8-8.4c-0.3-0.8-0.6-1.5-0.9-2.4c-4.2-11.2-5.8-23.6-6.7-35.9c-0.2-1.9-0.3-3.9-0.5-5.8
					c-0.2-2.1-0.3-4.3-0.5-6.4l-0.5-5.8c-0.1-0.6-0.2-1.3-0.3-1.9c-0.1-0.7-0.2-1.4-0.3-2.1c-0.4-2.6-0.8-5.3-1.1-8
					c-0.4-4.4-0.7-9.1-0.7-13.8c0-0.4,0-0.8,0-1.2c0-3,0.1-5.9,0.3-8.8c0.2-2.5,0.5-4.9,0.9-7.3c2.1-14.6,6.7-28.1,13.5-40
					c1.7-3,3.5-5.9,5.4-8.6c6.5-9.3,14.4-17.3,23.3-23.5c0.6-0.5,1.3-0.9,1.9-1.4c0.8-0.5,1.6-1.1,2.4-1.6c3.1-2,6.4-3.7,9.7-5.2
					c14.1-6.4,30.9-9.3,46.2-6.4c0.7,0.1,1.5,0.3,2.3,0.4c6.3,1.2,12.4,3.1,18.2,5.8c4.5,1.9,8.8,4.3,12.9,7.1
					c0.2,0.1,0.4,0.3,0.6,0.4c2.6,1.7,5.1,3.6,7.5,5.7c9,7.6,16.8,17.1,22.8,27.9c0.4,0.6,0.7,1.3,1.1,1.9
					c5.9,11.2,10.1,23.8,12.1,37.3c0,0.1,0,0.2,0,0.3c0.3,2.4,0.6,4.8,0.8,7.3c0.2,2.9,0.4,5.8,0.4,8.8
					C590.6,266.1,590.6,266.5,590.6,266.9z"/>
				<g>
					<g>
						<line class="st11" x1="407.9" y1="321.4" x2="407.9" y2="362.7"/>
						<line class="st11" x1="400.4" y1="355.2" x2="414.5" y2="355.2"/>
					</g>
					<g>
						<line class="st11" x1="591.9" y1="321.4" x2="591.9" y2="362.7"/>
						<line class="st11" x1="584.4" y1="355.2" x2="598.5" y2="355.2"/>
					</g>
				</g>
				<g>
					<path class="st8" d="M420.3,201.2c9.1-10.9,26.6-1.5,22.7,12.1c-3,10.4-10.2,20.6-15.1,28.1c-9.3,14.4-15.4,30.7-17.2,47.8
						c-10.6-26.1-8.7-57.1,5.2-81.6C417,205.6,418.5,203.4,420.3,201.2z"/>
					<path class="st8" d="M580,201.2c-9.1-10.9-26.6-1.5-22.7,12.1c3,10.4,10.2,20.6,15.1,28.1c9.3,14.4,15.4,30.7,17.2,47.8
						c10.6-26.1,8.7-57.1-5.2-81.6C583.3,205.6,581.8,203.4,580,201.2z"/>
				</g>
				<g>
					<path class="st8" d="M578.6,141.8c-2.1,6.4-6.5,12.1-12.3,15.7c1.6-9.2,2.9-23.2-1.5-31.8c-5.9,7.6-11.3,13.6-20.5,17.5
						c-8.6,3.7-18.1,5.1-27.4,6.2c3.3-5.6,6.1-11.4,8.6-17.3c-8.1,6.2-16.9,11.4-26.2,15.5c-3.6,1.6-7.3,3-11.2,3.2
						c-4.3,0.2-8.5-1.1-12.7-2c-18-3.5-37.2,3.1-50.9,15.4c-13.6,12.3-21.9,29.8-25,48c2.7-5.6,8.2-9.8,14.4-10.9
						c0.8,11.3,15,13.6,23.9,13.6c8.9,0.1,19.3-4.8,27,0.8c13.1,9.7,28.5,17,44.8,18c26.5,1.7,55.1-11.8,67.5-35.7
						C585.9,181.1,586.5,159.2,578.6,141.8z"/>
					<g>
						<path class="st10" d="M534.8,229.9c-13.1,9-30.7,11.1-45.6,5.5c-14.9-5.7-26.6-18.9-30.4-34.4c-0.8,9.6,0.7,17,6.3,24.8
							c5.6,7.9,14.1,13.7,23.4,16.1"/>
						<path class="st10" d="M497.9,151.6c12.6,0.3,25.5,0.6,37.3-3.7c11.8-4.3,22.4-14.3,23.6-26.9"/>
						<path class="st10" d="M454.9,151.1c19.2,4.9,40.7,0.1,56-12.6c5.9-4.9,11.3-12.2,9.7-19.8"/>
					</g>
				</g>
				<g class="st0">
					<g class="st1">
						<g>
							<path class="st8" d="M519.3,275.8c2.3-5.3,5.6-9.6,10.1-13.2c4.3-3.5,10.5-6.3,17.4-5.7c6.4,0.6,11.5,2.9,16.2,5.7
								c4.6,3,8.7,6.6,11.7,11.4c-5.6-0.6-10.6-1.6-15.4-2.5c-4.7-0.9-9.4-1.9-13.2-2c-3.4-0.2-7.1,0.8-11.6,2.1
								C529.9,273.1,525,275,519.3,275.8z"/>
						</g>
						<g>
							<path class="st8" d="M480,275.8c-5.8-0.8-10.6-2.7-15.1-4.1c-4.5-1.4-8.2-2.3-11.6-2.1c-3.8,0.1-8.5,1.1-13.2,2
								c-4.8,0.9-9.8,1.9-15.4,2.5c3-4.8,7.1-8.5,11.7-11.4c4.7-2.9,9.8-5.2,16.2-5.7c6.9-0.6,13.1,2.2,17.4,5.7
								C474.4,266.2,477.6,270.6,480,275.8z"/>
						</g>
					</g>
					<g class="st1">
						<g>
							<g>
								<g>
									<g>
										<g>
											<g>
												<path class="st8" d="M519,302.8c2.6-3.8,5-7.7,8.7-10.5c3.7-3,8.3-4.8,13.1-5.5c10.5-1.4,18,2.7,25.7,9.4
													c0,0-1.2-0.4-1.2-0.4c0,0,0.1,0.1,0.3,0c2.1-0.4,4.1-1.7,5.9-2.9c0.4-0.3,1-0.2,1.3,0.2c0.2,0.3,0.2,0.8,0,1.1
													c-0.9,1.2-1.9,2.2-3,3.2c-1.4,1.1-3.8,3.5-5.8,2.2c-3.6-2.1-7-4.9-10.9-6.4c-9.5-3.7-20.9-1.3-28.1,6.1
													c-1.6,1.6-3.1,3.2-4.7,4.7C519.6,304.7,518.3,303.6,519,302.8L519,302.8z"/>
											</g>
											<path class="st8" d="M534.2,296c0.3-4.3,4-7.5,8.3-7.1c4.3,0.3,7.5,4,7.1,8.3c-0.3,4.3-4,7.5-8.3,7.1
												C537.1,304,533.9,300.3,534.2,296z"/>
											<path class="st10" d="M557.6,302.1c2.8-0.6,5.5-1.9,7.8-3.7"/>
										</g>
									</g>
								</g>
							</g>
							<path class="st10" d="M519.5,294.1c4.3-5.9,11-10,18.3-11"/>
						</g>
						<g>
							<g>
								<g>
									<g>
										<g>
											<g>
												<path class="st8" d="M478.9,303.9c-3.1-2.9-5.9-6.4-9.5-8.6c-3.5-2.2-7.4-3.5-11.4-3.8c-4-0.4-8.1,0.2-11.8,1.6
													c-4,1.5-7.3,4.2-10.9,6.4c-2.7,1.8-7.2-3.5-8.7-5.4c-0.6-0.8,0.4-1.9,1.3-1.3c1.8,1.2,3.8,2.5,5.9,2.9
													c0.2,0.1,0.4,0,0.3,0c0,0-1.2,0.4-1.2,0.4c3.6-2.9,7.1-5.9,11.5-7.6c8.9-3.7,19.8-2.2,27.3,3.8
													c3.7,2.8,6.1,6.8,8.7,10.5C480.9,303.6,479.7,304.7,478.9,303.9L478.9,303.9z"/>
											</g>
											<path class="st8" d="M465,296c-0.3-4.3-4-7.5-8.3-7.1c-4.3,0.3-7.5,4-7.1,8.3c0.3,4.3,4,7.5,8.3,7.1
												C462.1,304,465.3,300.3,465,296z"/>
											<path class="st10" d="M441.6,302.1c-2.8-0.6-5.5-1.9-7.8-3.7"/>
										</g>
									</g>
								</g>
							</g>
							<path class="st10" d="M479.8,294.1c-4.3-5.9-11-10-18.3-11"/>
						</g>
					</g>
					<g class="st1">
						<g>
							<path class="st8" d="M499.5,370.6c3.8-0.2,7.5-0.6,11.3-1.1c0.9-0.1,12.9-1.5,12.8-2.3l-0.4-2.5c-2.9,0.2-5.6-1.6-7.7-3.2
								l-0.9-0.7c-2.2-1.8-4.5-3.7-7.4-4.6c-2.8-0.9-6.6-0.4-8.7,1.9c-2.1-2.3-5.9-2.8-8.7-1.9c-2.9,0.9-5.2,2.8-7.4,4.6l-0.9,0.7
								c-2.1,1.6-4.9,3.4-7.7,3.2c0,0-0.4,2.5-0.4,2.5c4.9,1.8,11,2.4,16.2,3.1C492.9,370.7,496.2,370.8,499.5,370.6z"/>
							<path class="st12" d="M511.7,367.3c6.3,0.5,12.7-1,18-4.3"/>
							<path class="st12" d="M534.6,356.7c1.9,2.3,1.9,6,0.1,8.3"/>
						</g>
						<path class="st10" d="M484.8,377.6c9.1,2.2,18.7,2.4,27.9,0.7"/>
					</g>
					<g class="st1">
						<g>
							<path class="st10" d="M503.2,341.4c2.1-0.9,4-2.4,5.4-4.2"/>
							<path class="st10" d="M496,341.4c-2.1-0.9-4-2.4-5.4-4.2"/>
						</g>
						<line class="st9" x1="498.9" y1="304.4" x2="498.9" y2="332"/>
					</g>
				</g>
			</g>
			<g>
				<g>
					<path class="st8" d="M315.7,637.6c34.1,15.4,65.3,20.1,69.6,10.6c4.3-9.5-19.9-29.7-54-45.1c-34.1-15.4-65.3-20.1-69.6-10.6
						S281.6,622.2,315.7,637.6z"/>
					<path class="st9" d="M234.7,748.7c0.1-0.4,0.3-0.8,0.4-1.2l45.4-129.8l9.9-28.3l20-57.1c6.3-18.2,19.8-31.5,35.2-36.9
						c5-1.8,10.2-2.7,15.4-2.7c4.8,0,9.6,0.8,14.3,2.4c26.8,9.4,38.8,43,26.2,73.2l-26,62l-9.5,22.5l-7.7,18.3l-32.6,77.6"/>
					<path class="st8" d="M262.5,591.3c6.3-8,36.2-2.9,68.8,11.7c34.1,15.4,58.3,35.6,54,45.2c-0.1,0.2-0.2,0.4-0.4,0.6l0.4,0.2
						l37.7-88.3c14.8-34.7-1.2-74.2-34.8-86c-6.4-2.2-12.8-3.3-19.3-3.3c-23,0-45.1,13.6-56.4,35.8L262.5,591.3z"/>
				</g>
				<g>
					<path class="st8" d="M684.3,637.6c-34.1,15.4-65.3,20.1-69.6,10.6c-4.3-9.5,19.9-29.7,54-45.1c34.1-15.4,65.3-20.1,69.6-10.6
						S718.4,622.2,684.3,637.6z"/>
					<path class="st9" d="M674.2,748.7l-34.6-82.3l-5.7-13.7l-9.5-22.5l-6.3-14.9L607.6,590l-9.2-21.8
						c-12.7-30.2-0.6-63.8,26.2-73.2c4.7-1.6,9.5-2.4,14.2-2.4c4.2,0,8.4,0.6,12.6,1.8c16.6,4.7,31.4,18.5,38.1,37.8l20,57.1
						l9.9,28.3l45.4,129.8c0.1,0.4,0.3,0.8,0.4,1.2"/>
					<path class="st8" d="M737.5,591.3c-6.3-8-36.2-2.9-68.8,11.7c-34.1,15.4-58.3,35.6-54,45.2c0.1,0.2,0.2,0.4,0.4,0.6l-0.4,0.2
						L577,560.6c-14.8-34.7,1.2-74.2,34.8-86c6.4-2.2,12.8-3.3,19.3-3.3c23,0,45.1,13.6,56.4,35.8L737.5,591.3z"/>
				</g>
			</g>
			<g>
				<g>
					<path class="st13" d="M654.5,550.1l-10.8,51.4c2.1,4.7,3.8,9.7,5,14.8c1.2,5.4,1.8,10.9,1.8,16.6c0,6.8-0.9,13.4-2.6,19.7
						c-1.4,5.5-3.4,10.7-6,15.5c-4.2,8.1-9.7,15.3-16.4,21.4l-12.6,60.9H385.3l-12.6-62.6c-4.6-4.5-8.6-9.5-12-15
						c-4-6.6-7.1-13.7-8.9-21.4c-1.5-5.9-2.3-12.1-2.3-18.6c0-6.5,0.8-12.9,2.4-18.9c1-3.8,2.2-7.5,3.7-11.1l-10.7-52.9
						c-4.6-19.5-3.7-38.6,3.2-52.9c5.7-11.9,15.5-20.6,29.8-23.6c3.6-0.8,7.6-1.2,11.8-1.2h225.7c4.2,0,8.1,0.4,11.6,1.2
						c13.5,2.9,22.1,11.3,26.8,22.8C659.6,510.8,659.1,530.2,654.5,550.1z"/>
				</g>
				<g>
					<defs>
						<path id="SVGID_1_" d="M645.7,606.6c-0.6-1.7-1.2-3.4-2-5l0,0c0,0,0-0.1,0-0.1l4.9-23.3l-4.8,23.3c0,0,0,0,0,0.1l8.2-39.2
							l2.6-12.2c4.7-19.9,5.1-39.3-0.8-53.8c-4.6-11.5-13.2-19.8-26.8-22.8c-3.5-0.8-7.4-1.2-11.6-1.2H389.6
							c-4.2,0-8.2,0.4-11.8,1.2c-14.3,3.1-24.1,11.7-29.8,23.6c-6.9,14.4-7.8,33.4-3.2,52.9l10.7,52.9c-0.8,2.1-1.6,4.2-2.3,6.3
							c-0.2,0.8-0.5,1.6-0.7,2.4c-0.2,0.8-0.5,1.6-0.7,2.4c-0.2,0.8-0.3,1.6-0.5,2.4c-0.1,0.5-0.2,1-0.3,1.5c-0.4,2.2-0.8,4.4-1,6.6
							c0,0.4-0.1,0.7-0.1,1.1c-0.2,2.4-0.4,4.8-0.4,7.3c0,2.6,0.2,5.1,0.4,7.6c0,0.2,0,0.4,0.1,0.5c0.3,2.5,0.6,4.9,1.1,7.3
							c0,0.2,0.1,0.4,0.1,0.6c0.2,0.8,0.3,1.7,0.5,2.5c0.3,1.4,0.8,2.7,1.2,4c0.1,0.2,0.1,0.5,0.2,0.8c0.7,2.3,1.6,4.6,2.5,6.8
							c0.1,0.2,0.2,0.4,0.3,0.6c0.8,1.9,1.8,3.8,2.7,5.6c0.3,0.5,0.6,1.1,0.9,1.6c0.4,0.6,0.7,1.3,1.1,1.9c0.7,1.1,1.4,2.2,2.1,3.2
							c0.1,0.2,0.2,0.3,0.3,0.5c1.3,1.8,2.6,3.6,4.1,5.3c0.3,0.4,0.6,0.7,0.9,1.1c1.3,1.5,2.7,3,4.1,4.4c0.2,0.2,0.3,0.3,0.5,0.5
							l0,0c0,0,0,0,0,0l12.6,62.6h227.5l12.6-60.9c0,0,0,0,0,0l0,0c0.3-0.3,0.6-0.7,1-1c1.4-1.3,2.8-2.7,4.1-4.2
							c0.6-0.7,1.2-1.4,1.8-2.2c0.9-1.1,1.9-2.2,2.8-3.4c0.7-0.9,1.3-1.9,2-2.9c0.7-1,1.4-2.1,2-3.1c0.6-1.1,1.3-2.1,1.9-3.2
							c0.3-0.5,0.6-1,0.9-1.5c0.3-0.5,0.4-1,0.7-1.5c0.7-1.5,1.4-2.9,2-4.4c0.4-1,0.8-2.1,1.2-3.1c0.6-1.7,1.1-3.4,1.6-5.1
							c0.1-0.5,0.3-0.9,0.5-1.4c0.2-0.6,0.3-1.2,0.4-1.9c0.2-0.8,0.4-1.5,0.5-2.3c0.5-2.2,0.8-4.3,1.1-6.6c0.1-0.6,0.1-1.2,0.2-1.8
							c0.2-2.2,0.4-4.5,0.4-6.8c0-0.2,0-0.3,0-0.5c0-5.7-0.6-11.2-1.8-16.5c0,0,0-0.1,0-0.1c-0.4-1.8-0.9-3.5-1.5-5.3
							c-0.2-0.7-0.4-1.5-0.6-2.2C646.4,608,646,607.3,645.7,606.6z"/>
					</defs>
					<clipPath id="SVGID_00000152955816800919652530000016380403462039869316_">
						<use xlink:href="#SVGID_1_"  style="overflow:visible;"/>
					</clipPath>
					<g style="clip-path:url(#SVGID_00000152955816800919652530000016380403462039869316_);">
						<rect x="326.6" y="526" class="st8" width="345.8" height="22.4"/>
						<rect x="326.6" y="586.3" class="st8" width="345.8" height="22.4"/>
						<rect x="326.6" y="646.6" class="st8" width="345.8" height="22.4"/>
						<rect x="326.6" y="706.9" class="st8" width="345.8" height="22.4"/>
					</g>
					<use xlink:href="#SVGID_1_"  style="overflow:visible;fill:none;stroke:#10018A;stroke-miterlimit:10;"/>
				</g>
			</g>
			<path class="st13" d="M544.4,469.1l23.5,3.2c-10.2,26.4-36.2,46.7-64.7,48c-30.6,1.3-60.3-19.6-71.1-48l19.8-2.1"/>
		</g>
	</g>
	<g>
		<g>
			<path class="st15" d="M649.7,435.6h-33.3c-33.4,0-60.6-27.1-60.6-60.6v0c0-33.4,27.1-60.6,60.6-60.6l97.6,0c20.4,0,37-16.6,37-37
				v-37l-134.6,0c-74.3,0-134.6,60.3-134.6,134.6v0c0,74.3,60.3,134.6,134.6,134.6h33.3V435.6z"/>
			<path class="st15" d="M713.7,337.5h-64v37.3c0,16.9,11.3,31.2,26.8,35.8v99h37.3c20.6,0,37.3-16.7,37.3-37.3v-60.2v-32.5v-4.8
				C751,354.2,734.3,337.5,713.7,337.5z"/>
		</g>
		<path class="st16" d="M249.3,457.8V240.4H286c20.3,0,36.8,16.5,36.8,36.8v180.6c0,20.3-16.5,36.8-36.8,36.8h0
			C265.7,494.6,249.3,478.1,249.3,457.8z"/>
		<g>
			<path class="st8" d="M444.2,375l0,97.6c0,20.4,16.6,37,37,37l37,0V375c0-74.3-60.3-134.6-134.6-134.6h0
				C309.3,240.4,249,300.7,249,375l0,134.6l74,0l0-134.6c0-33.4,27.1-60.6,60.6-60.6h0C417.1,314.4,444.2,341.6,444.2,375z"/>
		</g>
	</g>
</g>
</svg>
